<?xml version="1.0" encoding="UTF-8" standalone="no"?>
<svg
   xmlns:dc="http://purl.org/dc/elements/1.1/"
   xmlns:cc="http://creativecommons.org/ns#"
   xmlns:rdf="http://www.w3.org/1999/02/22-rdf-syntax-ns#"
   xmlns:svg="http://www.w3.org/2000/svg"
   xmlns="http://www.w3.org/2000/svg"
   version="1.1"
   id="svg2"
   viewBox="0 0 207.64156 207.65593"
   height="58.605118mm"
   width="58.601063mm">
  <defs
     id="defs4" />
  <metadata
     id="metadata7">
    <rdf:RDF>
      <cc:Work
         rdf:about="">
        <dc:format>image/svg+xml</dc:format>
        <dc:type
           rdf:resource="http://purl.org/dc/dcmitype/StillImage" />
        <dc:title></dc:title>
      </cc:Work>
    </rdf:RDF>
  </metadata>
  <g
     transform="translate(-13.123347,-12.111289)"
     id="layer1">
    <g
       id="g4212">
      <path
         style="fill:#ffffff;fill-opacity:1;stroke:none;stroke-opacity:1"
         id="path4142"
         d="m -283.3884,-82.758039 -53.53809,-2e-6 -26.76904,-46.365349 26.76905,-46.36534 53.53809,1e-5 26.76904,46.36534 z"
         transform="matrix(-0.70710678,-0.70710678,0.70710678,-0.70710678,12.497973,-246.79334)" />
      <path
         style="fill:#ffffff;fill-opacity:1;stroke:none;stroke-opacity:1"
         id="path4142-4"
         d="m -377.27167,-136.27583 -53.53809,0 -26.76904,-46.36535 26.76905,-46.36534 53.53808,0 26.76905,46.36535 z"
         transform="matrix(-0.70710678,-0.70710678,0.70710678,-0.70710678,12.497973,-246.79334)" />
      <path
         style="fill:#ffffff;fill-opacity:1;stroke:none;stroke-opacity:1"
         id="path4142-4-8"
         d="m -283.36811,-189.753 -53.53808,-1e-5 -26.76904,-46.36534 26.76904,-46.36534 53.53809,0 26.76904,46.36535 z"
         transform="matrix(-0.70710678,-0.70710678,0.70710678,-0.70710678,12.497973,-246.79334)" />
    </g>
  </g>
</svg>
